<svg width="6" height="3" viewBox="0 0 6 3" fill="none" xmlns="http://www.w3.org/2000/svg">
<path d="M0.453615 0H5.54638C5.63648 0.000327941 5.72443 0.0238409 5.79913 0.0675658C5.87383 0.111291 5.93192 0.173264 5.96605 0.245649C6.00018 0.318034 6.00882 0.39758 5.99088 0.474228C5.97294 0.550877 5.92922 0.621185 5.86525 0.676264L3.32342 2.88302C3.28108 2.92009 3.23069 2.94951 3.17518 2.96959C3.11967 2.98966 3.06013 3 3 3C2.93987 3 2.88033 2.98966 2.82482 2.96959C2.76931 2.94951 2.71892 2.92009 2.67658 2.88302L0.134748 0.676264C0.0707822 0.621185 0.027065 0.550877 0.00912409 0.474228C-0.00881684 0.39758 -0.000175887 0.318034 0.0339546 0.245649C0.0680851 0.173264 0.126172 0.111291 0.200871 0.0675658C0.275569 0.0238409 0.363525 0.000327941 0.453615 0V0Z" fill="#6B707C"/>
</svg>
